<svg width="40" height="40" viewBox="0 0 40 40" fill="none" xmlns="http://www.w3.org/2000/svg">
<path fill-rule="evenodd" clip-rule="evenodd" d="M2 8.22C2 7.08102 2 6.51153 2.22517 6.07805C2.41492 5.71276 2.71276 5.41492 3.07805 5.22517C3.51153 5 4.08102 5 5.22 5H34.78C35.919 5 36.4885 5 36.9219 5.22517C37.2872 5.41492 37.5851 5.71276 37.7748 6.07805C38 6.51153 38 7.08102 38 8.22V30.78C38 31.919 38 32.4885 37.7748 32.9219C37.5851 33.2872 37.2872 33.5851 36.9219 33.7748C36.4885 34 35.919 34 34.78 34H5.22C4.08102 34 3.51153 34 3.07805 33.7748C2.71276 33.5851 2.41492 33.2872 2.22517 32.9219C2 32.4885 2 31.919 2 30.78V8.22ZM15.6187 15.3813C15.9604 15.723 15.9604 16.277 15.6187 16.6187L14.2374 18L15.6187 19.3813C15.9604 19.723 15.9604 20.277 15.6187 20.6187C15.277 20.9604 14.723 20.9604 14.3813 20.6187L13 19.2374L11.6187 20.6187C11.277 20.9604 10.723 20.9604 10.3813 20.6187C10.0396 20.277 10.0396 19.723 10.3813 19.3813L11.7626 18L10.3813 16.6187C10.0396 16.277 10.0396 15.723 10.3813 15.3813C10.723 15.0396 11.277 15.0396 11.6187 15.3813L13 16.7626L14.3813 15.3813C14.723 15.0396 15.277 15.0396 15.6187 15.3813ZM13 12.875C10.1695 12.875 7.875 15.1695 7.875 18C7.875 20.8305 10.1695 23.125 13 23.125C15.8305 23.125 18.125 20.8305 18.125 18C18.125 15.1695 15.8305 12.875 13 12.875ZM6.125 18C6.125 14.203 9.20304 11.125 13 11.125C16.797 11.125 19.875 14.203 19.875 18C19.875 19.7829 19.1963 21.4073 18.0832 22.6289C18.2787 22.6475 18.4691 22.7316 18.6187 22.8813L21.6187 25.8813C21.9604 26.223 21.9604 26.777 21.6187 27.1187C21.277 27.4604 20.723 27.4604 20.3813 27.1187L17.3813 24.1187C17.2106 23.948 17.1251 23.7243 17.125 23.5005C15.976 24.3636 14.5477 24.875 13 24.875C9.20304 24.875 6.125 21.797 6.125 18Z" fill="black"/>
</svg>
